<svg width="176" height="130" viewBox="0 0 176 130" fill="none" xmlns="http://www.w3.org/2000/svg">
<path d="M133.69 24.2085C123.6 9.15277 105.446 -0.35919 87.1537 0.0103959C68.8616 0.379981 49.468 11.701 40.44 28.4296C39.8893 29.4605 39.4172 30.8611 40.2826 31.6586C40.912 32.2421 41.9545 32.106 42.6626 31.6002C43.3707 31.0945 43.7837 30.3164 44.1968 29.5772C52.6151 14.6771 69.2353 4.63994 86.485 4.03693C103.735 3.43392 121.024 12.304 130.484 26.5816C130.838 27.1068 131.192 27.6709 131.173 28.3129C131.173 28.8964 130.838 29.4216 130.504 29.9274C124.308 39.2059 114.946 46.4031 104.325 50.06C105.544 49.6321 106.941 46.4614 107.491 45.3721C108.376 43.602 109.006 41.7152 109.419 39.7895C110.225 35.8407 110.029 31.6586 108.731 27.8266C106.095 20.0458 98.6207 15.1828 90.5368 14.3659C83.456 13.6462 76.0211 15.708 70.4941 20.1625C56.0375 31.7947 58.4371 53.289 69.1173 66.5163C76.8865 76.145 88.8452 81.9027 101.296 82C102.358 81.9805 103.223 81.1247 103.223 80.0548C103.223 78.985 102.358 78.1291 101.296 78.1096C100.627 78.1096 99.9779 78.1096 99.3288 78.0318C89.0616 77.4483 79.8959 72.7215 73.4641 65.5243C73.4248 65.4659 73.3658 65.427 73.3265 65.3687C70.8285 61.6728 68.1929 58.5216 66.521 54.2811C63.3936 46.2864 62.8626 37.2607 67.3668 29.655C71.4579 22.7302 79.4632 17.8867 87.6061 17.6921C96.5161 17.4782 104.502 23.6639 105.957 32.4756C107.373 41.1705 101.315 50.3129 92.5823 52.2192C88.3338 53.1529 83.515 52.297 80.4859 49.2236C77.3192 46.014 76.7292 40.7426 78.7747 36.7355C80.5253 33.3314 84.164 30.861 88.0191 30.8805C91.8743 30.9 95.6507 33.7399 96.3194 37.4941C96.5948 39.0308 96.8505 41.1705 98.4437 41.2678C99.9188 41.3651 100.568 39.4199 100.45 37.961C100.037 33.4287 96.6341 29.3633 92.2873 27.846C87.9405 26.3288 82.8659 27.3014 79.2271 30.1024C75.1163 33.2536 72.9134 38.6418 73.6215 43.7187C74.3296 48.7957 77.9487 53.4058 82.7479 55.3315C86.544 56.8487 90.7925 56.7709 94.8639 56.2263C111.366 53.9699 126.629 44.0105 135.205 29.8885C135.48 29.4411 135.736 28.9742 135.795 28.4685C135.874 27.7293 135.5 27.0485 135.107 26.4066C134.654 25.6674 134.202 24.9282 133.71 24.2085H133.69Z" fill="#73448D"/>
<path d="M71.4135 120.056V113.167C71.4135 112.537 71.226 112.031 70.8509 111.65C70.4915 111.252 70.0305 111.053 69.4679 111.053C69.0772 111.053 68.7334 111.144 68.4365 111.326C68.1396 111.492 67.9052 111.741 67.7333 112.072C67.5614 112.387 67.4754 112.752 67.4754 113.167L66.0924 112.445C66.0924 111.5 66.2799 110.671 66.655 109.958C67.03 109.245 67.5536 108.698 68.2255 108.317C68.8975 107.919 69.6711 107.72 70.5462 107.72C71.437 107.72 72.2183 107.919 72.8903 108.317C73.5623 108.698 74.078 109.237 74.4374 109.934C74.8125 110.613 75 111.409 75 112.321V120.056H71.4135ZM63.8889 120.056V102H67.4754V120.056H63.8889Z" fill="#73448D"/>
<path d="M57.1253 120.056C56.3845 120.056 55.6524 119.966 54.9289 119.787C54.2226 119.608 53.5594 119.356 52.9392 119.03C52.3363 118.688 51.8195 118.298 51.3889 117.858L53.6369 115.71C54.0504 116.133 54.5413 116.467 55.1098 116.711C55.6783 116.939 56.2984 117.053 56.9703 117.053C57.4354 117.053 57.7885 116.988 58.0297 116.857C58.2881 116.727 58.4173 116.548 58.4173 116.32C58.4173 116.027 58.2622 115.808 57.9522 115.661C57.6593 115.498 57.2803 115.36 56.8152 115.246C56.3501 115.116 55.8591 114.977 55.3423 114.831C54.8255 114.685 54.3346 114.481 53.8695 114.221C53.4044 113.96 53.0254 113.602 52.7325 113.146C52.4397 112.674 52.2932 112.08 52.2932 111.364C52.2932 110.599 52.5 109.94 52.9134 109.387C53.3268 108.817 53.9125 108.369 54.6705 108.044C55.4285 107.718 56.3156 107.556 57.332 107.556C58.4001 107.556 59.382 107.735 60.2777 108.093C61.1908 108.435 61.9315 108.947 62.5 109.631L60.2519 111.779C59.8557 111.34 59.4078 111.031 58.9082 110.852C58.4259 110.672 57.9522 110.583 57.487 110.583C57.0392 110.583 56.7032 110.648 56.4793 110.778C56.2553 110.892 56.1434 111.063 56.1434 111.291C56.1434 111.535 56.2898 111.73 56.5827 111.877C56.8755 112.023 57.2545 112.154 57.7196 112.268C58.1847 112.381 58.6757 112.52 59.1925 112.683C59.7093 112.845 60.2002 113.065 60.6653 113.342C61.1305 113.618 61.5094 113.993 61.8023 114.465C62.0951 114.921 62.2416 115.523 62.2416 116.271C62.2416 117.427 61.7765 118.347 60.8462 119.03C59.9332 119.714 58.6929 120.056 57.1253 120.056Z" fill="#73448D"/>
<path d="M45.9849 120.056V107.885H49.8485V120.056H45.9849ZM47.9293 106.207C47.3233 106.207 46.8182 106.007 46.4142 105.606C46.027 105.189 45.8334 104.688 45.8334 104.104C45.8334 103.503 46.027 103.002 46.4142 102.601C46.8182 102.2 47.3233 102 47.9293 102C48.5354 102 49.032 102.2 49.4192 102.601C49.8064 103.002 50 103.503 50 104.104C50 104.688 49.8064 105.189 49.4192 105.606C49.032 106.007 48.5354 106.207 47.9293 106.207Z" fill="#73448D"/>
<path d="M38.8889 120.056V102H43.0556V120.056H38.8889Z" fill="#73448D"/>
<path d="M29.7529 120.307L25 107.556H28.9211L31.9392 117.668H30.4895L33.5789 107.556H37.5L32.557 120.307H29.7529ZM26.7823 125.611L30.2519 117.38L32.557 120.307L30.5133 125.611H26.7823Z" fill="#73448D"/>
<path d="M18.145 120.056V103.389H22.1329V120.056H18.145ZM15.2778 111.419V108.265H25.0001V111.419H15.2778Z" fill="#73448D"/>
<path d="M6.85358 120.056C5.34787 120.056 4.04984 119.824 2.9595 119.361C1.88647 118.882 0.899965 118.162 0 117.203L2.64798 114.698C3.23641 115.343 3.88543 115.848 4.59502 116.211C5.32191 116.559 6.1613 116.732 7.11319 116.732C7.97854 116.732 8.64486 116.583 9.11215 116.286C9.59675 115.988 9.83904 115.575 9.83904 115.046C9.83904 114.566 9.68328 114.178 9.37175 113.88C9.06023 113.582 8.64486 113.326 8.12565 113.111C7.62375 112.896 7.06127 112.689 6.43821 112.491C5.83247 112.293 5.22672 112.069 4.62098 111.821C4.01523 111.557 3.45275 111.234 2.93354 110.854C2.43164 110.457 2.02492 109.97 1.7134 109.391C1.40187 108.796 1.24611 108.052 1.24611 107.159C1.24611 106.084 1.51436 105.158 2.05088 104.381C2.60471 103.604 3.36622 103.017 4.33541 102.62C5.3046 102.207 6.42091 102 7.68432 102C8.96504 102 10.1333 102.215 11.189 102.645C12.262 103.075 13.1447 103.662 13.837 104.406L11.189 106.911C10.6352 106.365 10.0727 105.96 9.50156 105.695C8.94773 105.431 8.31603 105.299 7.60644 105.299C6.89685 105.299 6.33437 105.431 5.919 105.695C5.50363 105.943 5.29595 106.307 5.29595 106.787C5.29595 107.233 5.45171 107.597 5.76324 107.878C6.07477 108.143 6.48148 108.374 6.98339 108.572C7.5026 108.771 8.06507 108.969 8.67082 109.168C9.29387 109.366 9.90827 109.598 10.514 109.862C11.1198 110.127 11.6736 110.466 12.1755 110.879C12.6947 111.276 13.1101 111.788 13.4216 112.417C13.7331 113.028 13.8889 113.789 13.8889 114.698C13.8889 116.368 13.2658 117.683 12.0197 118.642C10.7736 119.584 9.05157 120.056 6.85358 120.056Z" fill="#73448D"/>
<path d="M160.382 120.056L156.167 107.556H159.93L162.539 116.635L161.435 116.661L164.321 107.556H167.432L170.342 116.661L169.213 116.635L171.848 107.556H175.611L171.396 120.056H168.26L165.425 111.414H166.378L163.493 120.056H160.382Z" fill="#7D7D7D"/>
<path d="M149.222 120.056C147.917 120.056 146.733 119.785 145.672 119.244C144.627 118.686 143.801 117.931 143.192 116.98C142.582 116.028 142.278 114.962 142.278 113.781C142.278 112.6 142.582 111.542 143.192 110.607C143.801 109.672 144.627 108.934 145.672 108.392C146.716 107.834 147.899 107.556 149.222 107.556C150.545 107.556 151.728 107.826 152.773 108.368C153.817 108.909 154.644 109.655 155.253 110.607C155.862 111.542 156.167 112.6 156.167 113.781C156.167 114.962 155.862 116.028 155.253 116.98C154.644 117.931 153.817 118.686 152.773 119.244C151.728 119.785 150.545 120.056 149.222 120.056ZM149.222 116.635C149.797 116.635 150.301 116.52 150.736 116.291C151.172 116.045 151.502 115.708 151.728 115.282C151.972 114.839 152.094 114.339 152.094 113.781C152.094 113.223 151.972 112.739 151.728 112.329C151.485 111.903 151.145 111.575 150.71 111.345C150.293 111.099 149.797 110.976 149.222 110.976C148.665 110.976 148.169 111.099 147.734 111.345C147.299 111.575 146.96 111.903 146.716 112.329C146.472 112.756 146.35 113.248 146.35 113.806C146.35 114.347 146.472 114.839 146.716 115.282C146.96 115.708 147.299 116.045 147.734 116.291C148.169 116.52 148.665 116.635 149.222 116.635Z" fill="#7D7D7D"/>
<path d="M133.944 120.056V107.808H137.248V120.056H133.944ZM137.248 113.327L135.866 112.067C136.139 110.639 136.6 109.53 137.248 108.74C137.895 107.95 138.795 107.556 139.946 107.556C140.45 107.556 140.889 107.648 141.263 107.833C141.652 108.001 141.99 108.27 142.278 108.639L140.313 111.537C140.169 111.353 139.989 111.21 139.773 111.109C139.558 111.008 139.313 110.958 139.039 110.958C138.492 110.958 138.053 111.159 137.722 111.563C137.406 111.949 137.248 112.537 137.248 113.327Z" fill="#7D7D7D"/>
<path d="M125.436 120.056C124.647 120.056 123.921 119.892 123.26 119.565C122.6 119.221 122.06 118.772 121.641 118.216C121.221 117.643 120.98 117.005 120.915 116.302V111.273C120.98 110.57 121.221 109.948 121.641 109.409C122.06 108.853 122.6 108.419 123.26 108.108C123.921 107.798 124.647 107.642 125.436 107.642C126.549 107.642 127.532 107.912 128.386 108.452C129.257 108.992 129.934 109.728 130.417 110.66C130.917 111.592 131.167 112.655 131.167 113.849C131.167 115.043 130.917 116.106 130.417 117.038C129.934 117.97 129.257 118.706 128.386 119.246C127.532 119.786 126.549 120.056 125.436 120.056ZM124.784 116.67C125.299 116.67 125.751 116.547 126.138 116.302C126.541 116.057 126.855 115.722 127.081 115.296C127.306 114.871 127.419 114.389 127.419 113.849C127.419 113.293 127.306 112.802 127.081 112.377C126.855 111.952 126.541 111.625 126.138 111.396C125.751 111.15 125.299 111.028 124.784 111.028C124.268 111.028 123.808 111.15 123.406 111.396C123.003 111.625 122.688 111.952 122.463 112.377C122.253 112.802 122.148 113.293 122.148 113.849C122.148 114.405 122.261 114.896 122.487 115.321C122.712 115.746 123.019 116.081 123.406 116.327C123.808 116.556 124.268 116.67 124.784 116.67ZM118.667 119.81V102H122.366V110.807L121.761 113.702L122.317 116.597V119.81H118.667Z" fill="#7D7D7D"/>
<path d="M110.108 120.056C108.807 120.056 107.646 119.793 106.625 119.268C105.62 118.727 104.83 117.98 104.253 117.029C103.677 116.078 103.389 115.003 103.389 113.806C103.389 112.608 103.669 111.542 104.229 110.607C104.805 109.655 105.579 108.909 106.551 108.368C107.523 107.826 108.618 107.556 109.836 107.556C111.022 107.556 112.068 107.81 112.974 108.318C113.88 108.827 114.588 109.532 115.098 110.435C115.625 111.337 115.889 112.37 115.889 113.535C115.889 113.748 115.872 113.978 115.839 114.224C115.823 114.454 115.782 114.724 115.716 115.036L105.365 115.061V112.477L114.11 112.452L112.48 113.535C112.463 112.846 112.356 112.28 112.159 111.837C111.961 111.378 111.665 111.033 111.269 110.804C110.891 110.558 110.421 110.435 109.861 110.435C109.268 110.435 108.75 110.574 108.305 110.853C107.877 111.115 107.539 111.493 107.292 111.985C107.061 112.477 106.946 113.076 106.946 113.781C106.946 114.486 107.07 115.093 107.317 115.602C107.58 116.094 107.943 116.479 108.404 116.758C108.881 117.021 109.441 117.152 110.084 117.152C110.676 117.152 111.212 117.054 111.689 116.857C112.167 116.644 112.587 116.332 112.949 115.922L115.024 117.989C114.431 118.678 113.715 119.194 112.875 119.539C112.035 119.883 111.113 120.056 110.108 120.056Z" fill="#7D7D7D"/>
<path d="M95.6417 120.307L90.8889 107.556H94.81L97.828 117.668H96.3784L99.4678 107.556H103.389L98.4459 120.307H95.6417ZM92.6712 125.611L96.1408 117.38L98.4459 120.307L96.4022 125.611H92.6712Z" fill="#7D7D7D"/>
<path d="M77 120.056V102H80.8708V120.056H77ZM79.9586 120.056V116.577H89.5V120.056H79.9586ZM79.9586 112.511V109.161H88.6371V112.511H79.9586ZM79.9586 105.453V102H89.3767V105.453H79.9586Z" fill="#7D7D7D"/>
<path d="M45.5 122.828C45.9403 123.537 46.4434 124.202 46.9885 124.825C47.8062 125.791 48.7496 126.692 49.8818 127.229C52.8379 128.646 56.4229 127.701 59.4419 126.928C62.2094 126.22 64.872 125.233 67.5765 124.331C70.2391 123.451 73.2162 122.442 76.0674 122.635C77.2205 122.721 78.3527 123.043 79.3171 123.708C82.2313 125.898 81.5394 128.624 81.5394 128.624C81.5394 128.624 80.2395 126.499 79.2332 125.791C76.0674 123.558 71.476 125.576 68.2264 126.606C64.6623 127.744 61.0353 129.032 57.3244 129.419C54.599 129.719 51.4961 129.633 49.106 128.045C47.303 126.885 46.2548 124.846 45.5 122.828Z" fill="#73448D"/>
<path d="M171.667 129.486V124.599H172.225L172.47 125.521V129.486H171.667ZM175.053 129.486L172.128 125.667L172.225 124.599L175.15 128.418L175.053 129.486ZM175.053 129.486L174.808 128.627V124.599H175.611V129.486H175.053Z" fill="#7D7D7D"/>
<path d="M167.604 129.556C167.255 129.556 166.93 129.49 166.627 129.36C166.324 129.23 166.059 129.051 165.831 128.823C165.603 128.59 165.424 128.322 165.294 128.02C165.168 127.713 165.105 127.385 165.105 127.036C165.105 126.686 165.168 126.361 165.294 126.058C165.424 125.756 165.601 125.49 165.824 125.262C166.052 125.03 166.315 124.85 166.613 124.725C166.916 124.595 167.241 124.529 167.59 124.529C167.939 124.529 168.263 124.595 168.561 124.725C168.863 124.85 169.128 125.03 169.357 125.262C169.585 125.49 169.761 125.758 169.887 126.065C170.017 126.368 170.083 126.693 170.083 127.042C170.083 127.392 170.017 127.72 169.887 128.027C169.761 128.329 169.585 128.595 169.357 128.823C169.133 129.051 168.87 129.23 168.568 129.36C168.27 129.49 167.949 129.556 167.604 129.556ZM167.59 128.788C167.921 128.788 168.209 128.713 168.456 128.564C168.707 128.415 168.903 128.211 169.042 127.95C169.187 127.685 169.259 127.38 169.259 127.036C169.259 126.78 169.217 126.547 169.133 126.337C169.054 126.123 168.94 125.939 168.791 125.786C168.642 125.628 168.465 125.507 168.261 125.423C168.06 125.339 167.837 125.297 167.59 125.297C167.265 125.297 166.976 125.372 166.725 125.521C166.478 125.665 166.283 125.867 166.138 126.128C165.999 126.389 165.929 126.691 165.929 127.036C165.929 127.291 165.968 127.529 166.048 127.748C166.131 127.962 166.245 128.145 166.39 128.299C166.539 128.453 166.715 128.574 166.92 128.662C167.125 128.746 167.348 128.788 167.59 128.788Z" fill="#7D7D7D"/>
<path d="M161.125 129.486V124.599H161.928V129.486H161.125ZM161.677 129.486V128.753H164.232V129.486H161.677Z" fill="#7D7D7D"/>
<path d="M155.148 129.486L157.158 124.599H157.716L159.713 129.486H158.847L157.284 125.528H157.577L155.999 129.486H155.148ZM156.139 128.543V127.845H158.729V128.543H156.139Z" fill="#7D7D7D"/>
<path d="M152.382 129.556C151.995 129.556 151.667 129.486 151.397 129.346C151.127 129.207 150.885 129.002 150.671 128.732L151.216 128.187C151.351 128.383 151.511 128.536 151.697 128.648C151.884 128.755 152.121 128.809 152.409 128.809C152.679 128.809 152.893 128.753 153.052 128.641C153.215 128.529 153.296 128.376 153.296 128.18C153.296 128.017 153.254 127.885 153.17 127.782C153.087 127.68 152.975 127.596 152.835 127.531C152.7 127.461 152.549 127.401 152.382 127.35C152.219 127.294 152.053 127.233 151.886 127.168C151.723 127.098 151.572 127.012 151.432 126.91C151.297 126.807 151.188 126.675 151.104 126.512C151.02 126.349 150.978 126.142 150.978 125.891C150.978 125.602 151.048 125.358 151.188 125.158C151.332 124.953 151.525 124.797 151.767 124.69C152.009 124.583 152.279 124.529 152.577 124.529C152.898 124.529 153.184 124.592 153.436 124.718C153.692 124.843 153.899 125.004 154.057 125.2L153.512 125.744C153.373 125.586 153.226 125.469 153.073 125.395C152.924 125.316 152.752 125.276 152.556 125.276C152.314 125.276 152.123 125.325 151.984 125.423C151.849 125.521 151.781 125.658 151.781 125.835C151.781 125.984 151.823 126.105 151.907 126.198C151.991 126.286 152.1 126.363 152.235 126.428C152.375 126.489 152.526 126.547 152.689 126.603C152.856 126.659 153.021 126.721 153.184 126.791C153.352 126.861 153.503 126.952 153.638 127.063C153.778 127.17 153.889 127.31 153.973 127.482C154.057 127.654 154.099 127.871 154.099 128.132C154.099 128.569 153.943 128.916 153.631 129.172C153.324 129.428 152.907 129.556 152.382 129.556Z" fill="#7D7D7D"/>
<path d="M144.9 129.556C144.565 129.556 144.249 129.49 143.951 129.36C143.653 129.23 143.393 129.051 143.169 128.823C142.946 128.59 142.769 128.322 142.639 128.02C142.513 127.713 142.45 127.385 142.45 127.036C142.45 126.686 142.513 126.361 142.639 126.058C142.769 125.756 142.946 125.49 143.169 125.262C143.397 125.03 143.662 124.85 143.965 124.725C144.272 124.595 144.603 124.529 144.956 124.529C145.343 124.529 145.701 124.604 146.031 124.753C146.362 124.902 146.639 125.113 146.862 125.388L146.318 125.933C146.173 125.728 145.98 125.572 145.738 125.465C145.496 125.353 145.236 125.297 144.956 125.297C144.621 125.297 144.326 125.372 144.07 125.521C143.818 125.665 143.623 125.867 143.483 126.128C143.344 126.389 143.274 126.691 143.274 127.036C143.274 127.38 143.344 127.685 143.483 127.95C143.628 128.211 143.821 128.415 144.063 128.564C144.305 128.713 144.579 128.788 144.886 128.788C145.212 128.788 145.491 128.73 145.724 128.613C145.962 128.492 146.143 128.315 146.269 128.083C146.394 127.845 146.457 127.554 146.457 127.21L146.96 127.573H144.873V126.84H147.288V126.952C147.288 127.533 147.183 128.017 146.974 128.404C146.769 128.79 146.487 129.079 146.129 129.269C145.771 129.46 145.361 129.556 144.9 129.556Z" fill="#7D7D7D"/>
<path d="M136.923 129.486V124.599H137.481L137.725 125.521V129.486H136.923ZM140.308 129.486L137.383 125.667L137.481 124.599L140.406 128.418L140.308 129.486ZM140.308 129.486L140.064 128.627V124.599H140.867V129.486H140.308Z" fill="#7D7D7D"/>
<path d="M134.294 129.486V124.599H135.097V129.486H134.294Z" fill="#7D7D7D"/>
<path d="M128.91 129.486V128.753H130.194C130.529 128.753 130.823 128.681 131.074 128.536C131.33 128.392 131.528 128.192 131.667 127.936C131.812 127.675 131.884 127.375 131.884 127.036C131.884 126.7 131.812 126.405 131.667 126.149C131.523 125.893 131.323 125.693 131.067 125.549C130.816 125.404 130.525 125.332 130.194 125.332H128.91V124.599H130.215C130.569 124.599 130.897 124.662 131.2 124.788C131.502 124.909 131.765 125.081 131.988 125.304C132.216 125.523 132.393 125.781 132.519 126.079C132.645 126.372 132.707 126.693 132.707 127.042C132.707 127.387 132.645 127.708 132.519 128.006C132.393 128.304 132.219 128.564 131.995 128.788C131.772 129.006 131.509 129.179 131.207 129.304C130.904 129.425 130.578 129.486 130.229 129.486H128.91ZM128.358 129.486V124.599H129.161V129.486H128.358Z" fill="#7D7D7D"/>
<path d="M122.38 129.486L124.391 124.599H124.949L126.946 129.486H126.08L124.517 125.528H124.81L123.232 129.486H122.38ZM123.372 128.543V127.845H125.962V128.543H123.372Z" fill="#7D7D7D"/>
<path d="M117.858 129.486V124.599H118.661V129.486H117.858ZM118.409 129.486V128.753H121.146V129.486H118.409ZM118.409 127.343V126.638H120.908V127.343H118.409ZM118.409 125.332V124.599H121.111V125.332H118.409Z" fill="#7D7D7D"/>
<path d="M113.353 127.412V126.749H114.589C114.836 126.749 115.026 126.686 115.161 126.561C115.301 126.431 115.371 126.251 115.371 126.023C115.371 125.819 115.303 125.646 115.168 125.507C115.033 125.367 114.843 125.297 114.596 125.297H113.353V124.599H114.631C114.938 124.599 115.208 124.662 115.441 124.788C115.673 124.909 115.852 125.076 115.978 125.29C116.108 125.5 116.174 125.739 116.174 126.009C116.174 126.293 116.108 126.54 115.978 126.749C115.852 126.959 115.673 127.122 115.441 127.238C115.208 127.354 114.938 127.412 114.631 127.412H113.353ZM112.802 129.486V124.599H113.605V129.486H112.802ZM115.482 129.486L113.772 127.364L114.519 127.091L116.495 129.486H115.482Z" fill="#7D7D7D"/>
<path d="M107.064 129.486V124.599H107.867V129.486H107.064ZM110.171 129.486V124.599H110.973V129.486H110.171ZM107.616 127.322V126.589H110.345V127.322H107.616Z" fill="#7D7D7D"/>
<path d="M103.203 129.486V124.739H104.006V129.486H103.203ZM101.611 125.332V124.599H105.597V125.332H101.611Z" fill="#7D7D7D"/>
</svg>
