<svg width="244" height="50" viewBox="0 0 244 50" fill="none" xmlns="http://www.w3.org/2000/svg">
<path d="M57.0481 14.7613C50.9169 5.58096 39.8856 -0.219018 28.7706 0.00633893C17.6556 0.231696 5.8713 7.13473 0.385516 17.3351C0.0508714 17.9637 -0.235967 18.8177 0.289904 19.304C0.672355 19.6598 1.30579 19.5768 1.73605 19.2684C2.16631 18.96 2.41729 18.4856 2.66827 18.0349C7.78356 8.94945 17.8827 2.82923 28.3642 2.46154C38.8458 2.09386 49.3513 7.50242 55.1 16.2083C55.3151 16.5286 55.5302 16.8725 55.5183 17.2639C55.5183 17.6198 55.3151 17.94 55.1119 18.2484C51.3472 23.906 45.6582 28.2946 39.2043 30.5244C39.9453 30.2635 40.7939 28.3301 41.1285 27.6659C41.6664 26.5866 42.0488 25.4361 42.2998 24.2619C42.7898 21.8541 42.6703 19.304 41.8815 16.9674C40.28 12.2231 35.7384 9.25783 30.8263 8.75968C26.5237 8.32082 22.006 9.57808 18.6476 12.2942C9.86314 19.387 11.3212 32.4933 17.811 40.5587C22.5318 46.4299 29.7984 49.9407 37.3638 50C38.0092 49.9881 38.5351 49.4663 38.5351 48.8139C38.5351 48.1616 38.0092 47.6397 37.3638 47.6278C36.9574 47.6278 36.563 47.6278 36.1686 47.5804C29.9299 47.2245 24.3604 44.3424 20.4523 39.9538C20.4284 39.9182 20.3925 39.8945 20.3686 39.8589C18.8508 37.6054 17.2492 35.6839 16.2333 33.0982C14.333 28.2234 14.0104 22.7199 16.7473 18.0823C19.2332 13.8599 24.0975 10.9065 29.0455 10.7879C34.4596 10.6574 39.3119 14.4292 40.1963 19.8022C41.0568 25.104 37.3757 30.6786 32.0692 31.841C29.4877 32.4103 26.5595 31.8884 24.719 30.0144C22.7948 28.0573 22.4362 24.843 23.6792 22.3997C24.7429 20.324 26.9539 18.8177 29.2965 18.8296C31.639 18.8414 33.9337 20.5731 34.34 22.8623C34.5074 23.7993 34.6627 25.104 35.6308 25.1633C36.5272 25.2226 36.9216 24.0365 36.8499 23.1469C36.5989 20.3834 34.5313 17.9044 31.89 16.9793C29.2487 16.0541 26.1651 16.6472 23.9541 18.3551C21.4562 20.2766 20.1176 23.5621 20.5479 26.6578C20.9781 29.7535 23.1772 32.5645 26.0934 33.7387C28.4001 34.6639 30.9816 34.6164 33.4556 34.2843C43.483 32.9085 52.7575 26.8357 57.9684 18.2247C58.1357 17.9519 58.2911 17.6672 58.3269 17.3588C58.3747 16.9081 58.1476 16.493 57.9086 16.1016C57.6337 15.6509 57.3588 15.2001 57.06 14.7613H57.0481Z" fill="white"/>
<path d="M139.747 29.2778V22.3888C139.747 21.7587 139.559 21.2531 139.184 20.8717C138.825 20.4738 138.364 20.2748 137.801 20.2748C137.411 20.2748 137.067 20.366 136.77 20.5484C136.473 20.7142 136.238 20.9629 136.067 21.2945C135.895 21.6095 135.809 21.9743 135.809 22.3888L134.426 21.6676C134.426 20.7225 134.613 19.8935 134.988 19.1806C135.363 18.4676 135.887 17.9205 136.559 17.5392C137.231 17.1412 138.004 16.9423 138.88 16.9423C139.77 16.9423 140.552 17.1412 141.224 17.5392C141.896 17.9205 142.411 18.4593 142.771 19.1557C143.146 19.8355 143.333 20.6313 143.333 21.5432V29.2778H139.747ZM132.222 29.2778V11.2222H135.809V29.2778H132.222Z" fill="white"/>
<path d="M125.459 29.2778C124.718 29.2778 123.986 29.1883 123.262 29.0092C122.556 28.8302 121.893 28.5779 121.273 28.2524C120.67 27.9106 120.153 27.52 119.722 27.0805L121.97 24.9321C122.384 25.3553 122.875 25.6889 123.443 25.9331C124.012 26.1609 124.632 26.2749 125.304 26.2749C125.769 26.2749 126.122 26.2098 126.363 26.0796C126.621 25.9493 126.751 25.7703 126.751 25.5424C126.751 25.2495 126.596 25.0298 126.285 24.8833C125.993 24.7205 125.614 24.5822 125.149 24.4682C124.683 24.338 124.192 24.1997 123.676 24.0532C123.159 23.9067 122.668 23.7033 122.203 23.4428C121.738 23.1824 121.359 22.8243 121.066 22.3686C120.773 21.8966 120.627 21.3025 120.627 20.5864C120.627 19.8214 120.833 19.1622 121.247 18.6089C121.66 18.0392 122.246 17.5916 123.004 17.2661C123.762 16.9406 124.649 16.7778 125.665 16.7778C126.733 16.7778 127.715 16.9568 128.611 17.3149C129.524 17.6567 130.265 18.1694 130.833 18.853L128.585 21.0014C128.189 20.562 127.741 20.2527 127.242 20.0737C126.759 19.8947 126.285 19.8051 125.82 19.8051C125.372 19.8051 125.037 19.8702 124.813 20.0005C124.589 20.1144 124.477 20.2853 124.477 20.5132C124.477 20.7573 124.623 20.9526 124.916 21.0991C125.209 21.2456 125.588 21.3758 126.053 21.4897C126.518 21.6036 127.009 21.742 127.526 21.9048C128.043 22.0675 128.534 22.2872 128.999 22.5639C129.464 22.8406 129.843 23.215 130.136 23.687C130.428 24.1427 130.575 24.7449 130.575 25.4936C130.575 26.6492 130.11 27.5688 129.18 28.2524C128.267 28.936 127.026 29.2778 125.459 29.2778Z" fill="white"/>
<path d="M114.318 29.2778V17.1072H118.182V29.2778H114.318ZM116.263 15.4293C115.657 15.4293 115.152 15.229 114.747 14.8283C114.36 14.4109 114.167 13.9101 114.167 13.3258C114.167 12.7247 114.36 12.2239 114.747 11.8232C115.152 11.4225 115.657 11.2222 116.263 11.2222C116.869 11.2222 117.365 11.4225 117.753 11.8232C118.14 12.2239 118.333 12.7247 118.333 13.3258C118.333 13.9101 118.14 14.4109 117.753 14.8283C117.365 15.229 116.869 15.4293 116.263 15.4293Z" fill="white"/>
<path d="M107.222 29.2778V11.2222H111.389V29.2778H107.222Z" fill="white"/>
<path d="M98.0862 29.529L93.3334 16.7778H97.2545L100.273 26.89H98.8229L101.912 16.7778H105.833L100.89 29.529H98.0862ZM95.1157 34.8334L98.5853 26.6025L100.89 29.529L98.8467 34.8334H95.1157Z" fill="white"/>
<path d="M86.4782 29.2778V12.6111H90.4662V29.2778H86.4782ZM83.6111 20.6412V17.4874H93.3333V20.6412H83.6111Z" fill="white"/>
<path d="M75.1869 29.2778C73.6812 29.2778 72.3832 29.0463 71.2928 28.5833C70.2198 28.1038 69.2333 27.3846 68.3333 26.4256L70.9813 23.9206C71.5697 24.5655 72.2187 25.0698 72.9283 25.4335C73.6552 25.7807 74.4946 25.9543 75.4465 25.9543C76.3119 25.9543 76.9782 25.8055 77.4455 25.5079C77.9301 25.2103 78.1724 24.7969 78.1724 24.2678C78.1724 23.7883 78.0166 23.3998 77.7051 23.1022C77.3935 22.8045 76.9782 22.5483 76.459 22.3333C75.9571 22.1184 75.3946 21.9117 74.7715 21.7133C74.1658 21.5149 73.56 21.2916 72.9543 21.0436C72.3485 20.7791 71.7861 20.4567 71.2669 20.0764C70.765 19.6795 70.3582 19.1918 70.0467 18.6131C69.7352 18.0178 69.5794 17.2738 69.5794 16.3809C69.5794 15.3062 69.8477 14.3803 70.3842 13.6031C70.938 12.826 71.6995 12.2391 72.6687 11.8422C73.6379 11.4289 74.7542 11.2222 76.0176 11.2222C77.2984 11.2222 78.4666 11.4371 79.5223 11.867C80.5953 12.2969 81.478 12.8839 82.1703 13.628L79.5223 16.1329C78.9685 15.5873 78.406 15.1822 77.8349 14.9176C77.281 14.6531 76.6493 14.5208 75.9398 14.5208C75.2302 14.5208 74.6677 14.6531 74.2523 14.9176C73.8369 15.1657 73.6293 15.5294 73.6293 16.0089C73.6293 16.4553 73.785 16.8191 74.0966 17.1002C74.4081 17.3647 74.8148 17.5962 75.3167 17.7946C75.8359 17.993 76.3984 18.1914 77.0041 18.3899C77.6272 18.5883 78.2416 18.8198 78.8473 19.0843C79.4531 19.3489 80.0069 19.6878 80.5088 20.1012C81.028 20.498 81.4434 21.0106 81.7549 21.6389C82.0664 22.2506 82.2222 23.0112 82.2222 23.9206C82.2222 25.5906 81.5991 26.9051 80.353 27.8641C79.1069 28.8065 77.3849 29.2778 75.1869 29.2778Z" fill="white"/>
<path d="M228.715 29.2778L224.5 16.7778H228.263L230.873 25.857L229.769 25.8827L232.654 16.7778H235.765L238.676 25.8827L237.547 25.857L240.181 16.7778H243.944L239.729 29.2778H236.593L233.758 20.6358H234.711L231.826 29.2778H228.715Z" fill="#F9B7FF"/>
<path d="M217.556 29.2778C216.25 29.2778 215.067 29.0071 214.005 28.4658C212.961 27.9081 212.134 27.1535 211.525 26.202C210.916 25.2506 210.611 24.1843 210.611 23.0032C210.611 21.8221 210.916 20.764 211.525 19.829C212.134 18.8939 212.961 18.1558 214.005 17.6144C215.049 17.0567 216.233 16.7778 217.556 16.7778C218.878 16.7778 220.062 17.0485 221.106 17.5898C222.15 18.1311 222.977 18.8775 223.586 19.829C224.195 20.764 224.5 21.8221 224.5 23.0032C224.5 24.1843 224.195 25.2506 223.586 26.202C222.977 27.1535 222.15 27.9081 221.106 28.4658C220.062 29.0071 218.878 29.2778 217.556 29.2778ZM217.556 25.8575C218.13 25.8575 218.635 25.7427 219.07 25.513C219.505 25.267 219.836 24.9307 220.062 24.5042C220.305 24.0613 220.427 23.5609 220.427 23.0032C220.427 22.4455 220.305 21.9615 220.062 21.5514C219.818 21.1249 219.479 20.7968 219.044 20.5672C218.626 20.3211 218.13 20.1981 217.556 20.1981C216.999 20.1981 216.503 20.3211 216.067 20.5672C215.632 20.7968 215.293 21.1249 215.049 21.5514C214.806 21.9779 214.684 22.4701 214.684 23.0278C214.684 23.5691 214.806 24.0613 215.049 24.5042C215.293 24.9307 215.632 25.267 216.067 25.513C216.503 25.7427 216.999 25.8575 217.556 25.8575Z" fill="#F9B7FF"/>
<path d="M202.278 29.2778V17.0298H205.581V29.2778H202.278ZM205.581 22.549L204.199 21.2889C204.473 19.8608 204.933 18.7519 205.581 17.9623C206.229 17.1726 207.128 16.7778 208.279 16.7778C208.783 16.7778 209.222 16.8702 209.596 17.055C209.985 17.223 210.323 17.4918 210.611 17.8615L208.646 20.7597C208.503 20.5748 208.323 20.432 208.107 20.3312C207.891 20.2304 207.646 20.18 207.373 20.18C206.826 20.18 206.387 20.3816 206.056 20.7849C205.739 21.1713 205.581 21.7593 205.581 22.549Z" fill="#F9B7FF"/>
<path d="M193.77 29.2778C192.98 29.2778 192.255 29.1142 191.594 28.7871C190.933 28.4437 190.393 27.9939 189.974 27.4379C189.555 26.8654 189.313 26.2276 189.249 25.5244V20.4953C189.313 19.792 189.555 19.1706 189.974 18.6309C190.393 18.0748 190.933 17.6414 191.594 17.3307C192.255 17.0199 192.98 16.8646 193.77 16.8646C194.882 16.8646 195.865 17.1344 196.72 17.6741C197.59 18.2138 198.267 18.9498 198.75 19.882C199.25 20.8142 199.5 21.8773 199.5 23.0712C199.5 24.265 199.25 25.3281 198.75 26.2603C198.267 27.1925 197.59 27.9285 196.72 28.4682C195.865 29.0079 194.882 29.2778 193.77 29.2778ZM193.117 25.8923C193.633 25.8923 194.084 25.7697 194.471 25.5244C194.874 25.279 195.188 24.9438 195.414 24.5185C195.64 24.0933 195.752 23.6109 195.752 23.0712C195.752 22.5151 195.64 22.0245 195.414 21.5992C195.188 21.174 194.874 20.8469 194.471 20.618C194.084 20.3726 193.633 20.25 193.117 20.25C192.601 20.25 192.142 20.3726 191.739 20.618C191.336 20.8469 191.022 21.174 190.796 21.5992C190.586 22.0245 190.482 22.5151 190.482 23.0712C190.482 23.6272 190.594 24.1179 190.82 24.5431C191.046 24.9683 191.352 25.3036 191.739 25.5489C192.142 25.7779 192.601 25.8923 193.117 25.8923ZM187 29.0324V11.2222H190.699V20.0292L190.095 22.924L190.651 25.8187V29.0324H187Z" fill="#F9B7FF"/>
<path d="M178.442 29.2778C177.141 29.2778 175.979 29.0153 174.958 28.4904C173.954 27.9491 173.163 27.2027 172.587 26.2512C172.01 25.2998 171.722 24.2253 171.722 23.0278C171.722 21.8303 172.002 20.764 172.562 19.829C173.139 18.8775 173.913 18.1311 174.884 17.5898C175.856 17.0485 176.951 16.7778 178.17 16.7778C179.356 16.7778 180.401 17.0321 181.307 17.5406C182.213 18.0491 182.921 18.7545 183.432 19.6567C183.959 20.559 184.222 21.5924 184.222 22.7571C184.222 22.9704 184.206 23.2 184.173 23.4461C184.156 23.6758 184.115 23.9464 184.049 24.2581L173.698 24.2827V21.6991L182.444 21.6745L180.813 22.7571C180.797 22.0682 180.69 21.5022 180.492 21.0593C180.294 20.6 179.998 20.2555 179.603 20.0258C179.224 19.7798 178.754 19.6567 178.195 19.6567C177.602 19.6567 177.083 19.7962 176.638 20.075C176.21 20.3375 175.872 20.7148 175.625 21.2069C175.395 21.6991 175.28 22.2978 175.28 23.0032C175.28 23.7086 175.403 24.3155 175.65 24.8241C175.914 25.3162 176.276 25.7017 176.737 25.9806C177.215 26.243 177.775 26.3743 178.417 26.3743C179.01 26.3743 179.545 26.2758 180.023 26.079C180.5 25.8657 180.92 25.554 181.282 25.1439L183.358 27.2109C182.765 27.8998 182.048 28.4166 181.208 28.7611C180.368 29.1056 179.446 29.2778 178.442 29.2778Z" fill="#F9B7FF"/>
<path d="M163.975 29.529L159.222 16.7778H163.143L166.161 26.89H164.712L167.801 16.7778H171.722L166.779 29.529H163.975ZM161.005 34.8334L164.474 26.6025L166.779 29.529L164.736 34.8334H161.005Z" fill="#F9B7FF"/>
<path d="M145.333 29.2778V11.2222H149.204V29.2778H145.333ZM148.292 29.2778V25.7996H157.833V29.2778H148.292ZM148.292 21.7333V18.383H156.97V21.7333H148.292ZM148.292 14.6747V11.2222H157.71V14.6747H148.292Z" fill="#F9B7FF"/>
<path d="M113.833 32.0506C114.274 32.759 114.777 33.4244 115.322 34.0469C116.139 35.0129 117.083 35.9145 118.215 36.4512C121.171 37.8679 124.756 36.9234 127.775 36.1506C130.543 35.4422 133.205 34.4548 135.91 33.5532C138.572 32.6731 141.549 31.6642 144.401 31.8574C145.554 31.9432 146.686 32.2652 147.65 32.9307C150.565 35.1202 149.873 37.8465 149.873 37.8465C149.873 37.8465 148.573 35.7213 147.567 35.0129C144.401 32.7804 139.809 34.7983 136.56 35.8286C132.996 36.9663 129.369 38.2543 125.658 38.6407C122.932 38.9412 119.829 38.8554 117.439 37.2669C115.636 36.1077 114.588 34.0684 113.833 32.0506Z" fill="white"/>
<path d="M240 38.708V33.8214H240.559L240.803 34.7429V38.708H240ZM243.386 38.708L240.461 34.8895L240.559 33.8214L243.484 37.6399L243.386 38.708ZM243.386 38.708L243.142 37.8494V33.8214H243.944V38.708H243.386Z" fill="#F9B7FF"/>
<path d="M235.938 38.7778C235.589 38.7778 235.263 38.7126 234.96 38.5823C234.658 38.452 234.393 38.2729 234.164 38.0448C233.936 37.8121 233.757 37.5445 233.627 37.242C233.501 36.9348 233.438 36.6067 233.438 36.2577C233.438 35.9087 233.501 35.5829 233.627 35.2804C233.757 34.9779 233.934 34.7126 234.158 34.4846C234.386 34.2519 234.648 34.0727 234.946 33.947C235.249 33.8167 235.575 33.7516 235.924 33.7516C236.273 33.7516 236.596 33.8167 236.894 33.947C237.197 34.0727 237.462 34.2519 237.69 34.4846C237.918 34.7126 238.095 34.9802 238.22 35.2874C238.351 35.5899 238.416 35.9156 238.416 36.2647C238.416 36.6137 238.351 36.9418 238.22 37.249C238.095 37.5515 237.918 37.8168 237.69 38.0448C237.466 38.2729 237.204 38.452 236.901 38.5823C236.603 38.7126 236.282 38.7778 235.938 38.7778ZM235.924 38.0099C236.254 38.0099 236.543 37.9354 236.789 37.7865C237.041 37.6376 237.236 37.4328 237.376 37.1722C237.52 36.9069 237.592 36.6021 237.592 36.2577C237.592 36.0017 237.55 35.769 237.466 35.5596C237.387 35.3455 237.273 35.1617 237.124 35.0081C236.975 34.8499 236.799 34.7289 236.594 34.6451C236.394 34.5613 236.17 34.5195 235.924 34.5195C235.598 34.5195 235.309 34.5939 235.058 34.7428C234.811 34.8871 234.616 35.0896 234.472 35.3502C234.332 35.6108 234.262 35.9133 234.262 36.2577C234.262 36.5137 234.302 36.751 234.381 36.9698C234.465 37.1838 234.579 37.3677 234.723 37.5212C234.872 37.6748 235.049 37.7958 235.254 37.8842C235.458 37.968 235.682 38.0099 235.924 38.0099Z" fill="#F9B7FF"/>
<path d="M229.459 38.708V33.8214H230.262V38.708H229.459ZM230.01 38.708V37.975H232.565V38.708H230.01Z" fill="#F9B7FF"/>
<path d="M223.481 38.708L225.491 33.8214H226.05L228.046 38.708H227.181L225.617 34.7498H225.91L224.333 38.708H223.481ZM224.472 37.7656V37.0675H227.062V37.7656H224.472Z" fill="#F9B7FF"/>
<path d="M220.715 38.7778C220.329 38.7778 220.001 38.708 219.731 38.5684C219.461 38.4288 219.219 38.224 219.005 37.9541L219.549 37.4095C219.684 37.605 219.845 37.7586 220.031 37.8703C220.217 37.9773 220.454 38.0308 220.743 38.0308C221.013 38.0308 221.227 37.975 221.385 37.8633C221.548 37.7516 221.629 37.598 221.629 37.4026C221.629 37.2397 221.588 37.107 221.504 37.0047C221.42 36.9023 221.308 36.8185 221.169 36.7533C221.034 36.6835 220.882 36.623 220.715 36.5718C220.552 36.516 220.387 36.4555 220.219 36.3903C220.056 36.3205 219.905 36.2344 219.765 36.132C219.631 36.0297 219.521 35.897 219.437 35.7341C219.354 35.5712 219.312 35.3641 219.312 35.1128C219.312 34.8243 219.382 34.58 219.521 34.3798C219.665 34.1751 219.859 34.0192 220.101 33.9121C220.343 33.8051 220.613 33.7516 220.91 33.7516C221.231 33.7516 221.518 33.8144 221.769 33.94C222.025 34.0657 222.232 34.2263 222.39 34.4217L221.846 34.9662C221.706 34.808 221.56 34.6917 221.406 34.6172C221.257 34.5381 221.085 34.4985 220.889 34.4985C220.647 34.4985 220.457 34.5474 220.317 34.6451C220.182 34.7428 220.115 34.8801 220.115 35.057C220.115 35.2059 220.156 35.3269 220.24 35.42C220.324 35.5084 220.433 35.5852 220.568 35.6504C220.708 35.7109 220.859 35.769 221.022 35.8249C221.19 35.8807 221.355 35.9436 221.518 36.0134C221.685 36.0832 221.836 36.1739 221.971 36.2856C222.111 36.3927 222.223 36.5323 222.307 36.7045C222.39 36.8767 222.432 37.0931 222.432 37.3537C222.432 37.7912 222.276 38.1379 221.964 38.3939C221.657 38.6498 221.241 38.7778 220.715 38.7778Z" fill="#F9B7FF"/>
<path d="M213.234 38.7778C212.899 38.7778 212.582 38.7126 212.284 38.5823C211.987 38.452 211.726 38.2729 211.503 38.0448C211.279 37.8121 211.102 37.5445 210.972 37.242C210.846 36.9348 210.784 36.6067 210.784 36.2577C210.784 35.9087 210.846 35.5829 210.972 35.2804C211.102 34.9779 211.279 34.7126 211.503 34.4846C211.731 34.2519 211.996 34.0727 212.298 33.947C212.606 33.8167 212.936 33.7516 213.29 33.7516C213.676 33.7516 214.034 33.826 214.365 33.9749C214.695 34.1239 214.972 34.3356 215.195 34.6102L214.651 35.1547C214.507 34.9499 214.314 34.794 214.072 34.687C213.83 34.5753 213.569 34.5195 213.29 34.5195C212.955 34.5195 212.659 34.5939 212.403 34.7428C212.152 34.8871 211.956 35.0896 211.817 35.3502C211.677 35.6108 211.607 35.9133 211.607 36.2577C211.607 36.6021 211.677 36.9069 211.817 37.1722C211.961 37.4328 212.154 37.6376 212.396 37.7865C212.638 37.9354 212.913 38.0099 213.22 38.0099C213.546 38.0099 213.825 37.9517 214.058 37.8354C214.295 37.7144 214.476 37.5375 214.602 37.3048C214.728 37.0675 214.791 36.7766 214.791 36.4322L215.293 36.7952H213.206V36.0622H215.621V36.1739C215.621 36.7557 215.517 37.2397 215.307 37.626C215.102 38.0122 214.821 38.3008 214.462 38.4916C214.104 38.6824 213.695 38.7778 213.234 38.7778Z" fill="#F9B7FF"/>
<path d="M205.256 38.708V33.8214H205.814L206.059 34.7429V38.708H205.256ZM208.642 38.708L205.717 34.8895L205.814 33.8214L208.739 37.6399L208.642 38.708ZM208.642 38.708L208.397 37.8494V33.8214H209.2V38.708H208.642Z" fill="#F9B7FF"/>
<path d="M202.627 38.708V33.8214H203.43V38.708H202.627Z" fill="#F9B7FF"/>
<path d="M197.243 38.708V37.975H198.528C198.863 37.975 199.156 37.9029 199.407 37.7586C199.663 37.6143 199.861 37.4142 200.001 37.1582C200.145 36.8976 200.217 36.5975 200.217 36.2577C200.217 35.9226 200.145 35.6271 200.001 35.3711C199.856 35.1152 199.656 34.9151 199.4 34.7708C199.149 34.6265 198.858 34.5544 198.528 34.5544H197.243V33.8214H198.549C198.902 33.8214 199.23 33.8842 199.533 34.0099C199.835 34.1309 200.098 34.3031 200.322 34.5265C200.55 34.7452 200.727 35.0035 200.852 35.3013C200.978 35.5945 201.041 35.9156 201.041 36.2647C201.041 36.6091 200.978 36.9302 200.852 37.2281C200.727 37.5259 200.552 37.7865 200.329 38.0099C200.105 38.2287 199.842 38.4008 199.54 38.5265C199.237 38.6475 198.912 38.708 198.563 38.708H197.243ZM196.692 38.708V33.8214H197.494V38.708H196.692Z" fill="#F9B7FF"/>
<path d="M190.714 38.708L192.724 33.8214H193.283L195.279 38.708H194.414L192.85 34.7498H193.143L191.565 38.708H190.714ZM191.705 37.7656V37.0675H194.295V37.7656H191.705Z" fill="#F9B7FF"/>
<path d="M186.191 38.708V33.8214H186.994V38.708H186.191ZM186.743 38.708V37.975H189.479V38.708H186.743ZM186.743 36.5649V35.8598H189.242V36.5649H186.743ZM186.743 34.5544V33.8214H189.444V34.5544H186.743Z" fill="#F9B7FF"/>
<path d="M181.687 36.6347V35.9715H182.922C183.169 35.9715 183.36 35.9087 183.495 35.783C183.634 35.6527 183.704 35.4735 183.704 35.2455C183.704 35.0407 183.637 34.8685 183.502 34.7289C183.367 34.5893 183.176 34.5195 182.929 34.5195H181.687V33.8214H182.964C183.271 33.8214 183.541 33.8842 183.774 34.0099C184.007 34.1309 184.186 34.2984 184.311 34.5125C184.442 34.7219 184.507 34.9616 184.507 35.2315C184.507 35.5154 184.442 35.7621 184.311 35.9715C184.186 36.1809 184.007 36.3438 183.774 36.4602C183.541 36.5765 183.271 36.6347 182.964 36.6347H181.687ZM181.135 38.708V33.8214H181.938V38.708H181.135ZM183.816 38.708L182.105 36.5858L182.852 36.3136L184.828 38.708H183.816Z" fill="#F9B7FF"/>
<path d="M175.397 38.708V33.8214H176.2V38.708H175.397ZM178.504 38.708V33.8214H179.307V38.708H178.504ZM175.949 36.5439V35.8109H178.679V36.5439H175.949Z" fill="#F9B7FF"/>
<path d="M171.536 38.708V33.961H172.339V38.708H171.536ZM169.944 34.5544V33.8214H173.931V34.5544H169.944Z" fill="#F9B7FF"/>
</svg>
